<?xml version="1.0" standalone="no"?>
<!DOCTYPE svg PUBLIC "-//W3C//DTD SVG 20010904//EN"
 "http://www.w3.org/TR/2001/REC-SVG-20010904/DTD/svg10.dtd">
<svg version="1.0" xmlns="http://www.w3.org/2000/svg"
 width="256.000000pt" height="256.000000pt" viewBox="0 0 256.000000 256.000000"
 preserveAspectRatio="xMidYMid meet">
<metadata>
Created by potrace 1.10, written by Peter Selinger 2001-2011
</metadata>
<g transform="translate(0.000000,256.000000) scale(0.100000,-0.100000)"
fill="#000000" stroke="none">
<path d="M615 1819 c-39 -28 -98 -104 -131 -168 -30 -57 -44 -64 -45 -23 -6
150 -47 208 -137 195 l-33 -5 7 -57 c4 -31 7 -74 7 -96 0 -36 -37 -330 -63
-508 -5 -37 -10 -84 -10 -104 0 -39 34 -103 55 -103 7 0 18 -7 25 -15 17 -21
25 -19 53 11 41 43 58 116 67 274 4 80 15 177 25 215 15 64 68 178 98 211 7 7
25 31 41 53 54 74 60 61 53 -116 -7 -156 -11 -199 -41 -361 -20 -108 -14 -138
30 -152 19 -7 39 -10 45 -8 11 4 30 47 51 118 5 19 14 40 18 45 5 6 14 33 21
60 21 85 137 316 179 358 60 58 73 48 46 -35 -20 -59 -34 -110 -57 -198 -11
-41 -27 -100 -35 -130 -29 -106 -33 -136 -34 -251 0 -107 2 -120 28 -170 31
-63 61 -82 117 -75 33 4 49 14 91 59 28 30 68 83 88 118 20 35 41 71 46 79 20
34 40 84 34 89 -5 6 -27 -18 -39 -43 -3 -7 -7 -7 -11 2 -12 26 -100 136 -112
140 -24 8 -11 -27 29 -80 23 -29 51 -60 62 -69 20 -16 20 -17 -19 -79 -56 -91
-105 -142 -124 -130 -19 12 -22 209 -3 231 6 8 11 38 11 67 1 28 4 58 9 65 27
41 64 224 70 341 6 115 -6 166 -44 195 -54 44 -116 16 -194 -87 -27 -36 -64
-96 -82 -133 -18 -37 -35 -68 -39 -68 -3 -1 -4 44 -1 99 8 139 -10 197 -77
243 -31 22 -39 21 -75 -4z m72 -51 c35 -39 37 -50 43 -165 4 -87 9 -116 23
-131 17 -19 17 -22 -7 -83 -13 -35 -39 -104 -57 -154 -32 -89 -53 -125 -65
-112 -10 10 -7 44 15 172 12 66 24 187 28 268 6 142 5 149 -16 178 -35 47 -4
70 36 27z m-322 -8 c10 -11 22 -45 27 -77 5 -31 16 -69 25 -85 16 -26 16 -31
0 -80 -29 -91 -37 -138 -47 -288 -13 -198 -32 -260 -78 -246 -44 14 -46 60
-13 316 17 129 35 264 41 300 5 35 6 83 3 106 -9 70 8 92 42 54z m710 -50 c26
-50 23 -255 -5 -355 -12 -44 -29 -93 -37 -109 -22 -43 -53 -202 -53 -275 0
-47 5 -72 20 -97 21 -33 21 -33 1 -43 -31 -17 -68 6 -92 56 -20 41 -21 56 -16
171 4 116 10 146 66 349 33 122 61 233 61 246 0 13 -9 32 -20 42 -25 23 -10
45 31 45 22 0 32 -7 44 -30z"/>
<path d="M2045 1794 c-6 -1 -22 -5 -37 -8 -37 -8 -89 -56 -133 -121 -38 -57
-59 -71 -50 -32 4 16 -3 35 -24 64 -23 32 -38 42 -70 48 -56 9 -84 -1 -77 -28
13 -47 18 -107 12 -141 -6 -32 -10 -36 -39 -36 -63 0 -130 -65 -179 -176 -38
-88 2 -66 56 30 19 34 43 69 53 77 20 17 91 59 100 59 19 0 -16 -325 -47 -440
-5 -19 -14 -71 -20 -114 -10 -69 -9 -80 6 -97 20 -23 42 -24 63 -5 9 8 36 18
61 23 31 7 44 14 41 24 -6 22 -4 29 28 119 23 65 31 106 33 175 3 83 5 90 25
93 17 3 23 -3 28 -28 6 -28 23 -71 55 -145 42 -95 50 -116 50 -127 0 -26 79
-259 99 -291 40 -64 121 -78 151 -24 14 25 13 30 -11 80 -15 28 -37 90 -49
137 -24 94 -21 86 -80 227 -23 56 -48 107 -56 114 -8 6 -14 20 -14 30 0 11 -4
19 -10 19 -24 0 -6 19 58 63 37 25 84 68 104 94 68 89 73 199 12 261 -18 19
-34 38 -36 43 -3 10 -88 37 -103 33z m99 -94 c20 -22 36 -48 37 -58 6 -102
-21 -154 -117 -233 -38 -30 -76 -67 -84 -81 -13 -25 -12 -31 24 -100 52 -100
89 -196 121 -314 15 -54 36 -116 46 -136 26 -51 24 -68 -6 -68 -40 0 -62 36
-105 174 -43 137 -147 411 -164 435 -8 10 -6 17 8 25 91 54 121 92 161 209 21
60 26 90 23 132 -6 67 6 70 56 15z m-95 12 c29 -54 -74 -312 -125 -312 -8 0
-25 -7 -38 -15 -27 -18 -56 -10 -56 14 1 132 77 276 169 318 36 16 39 15 50
-5z m-303 -20 c5 -4 25 -29 43 -57 32 -47 33 -52 23 -95 -24 -96 -25 -137 -6
-169 16 -28 17 -32 2 -48 -11 -12 -19 -45 -23 -98 -3 -47 -19 -121 -38 -179
-28 -90 -34 -100 -64 -112 -18 -8 -37 -14 -43 -14 -14 0 -12 76 6 200 28 198
32 235 39 315 3 44 11 99 17 123 6 23 8 62 6 87 -3 24 -3 47 0 50 7 7 25 6 38
-3z"/>
<path d="M1152 1528 c3 -7 18 -15 34 -19 68 -14 108 -48 184 -155 31 -43 35
-46 38 -26 7 45 -102 179 -165 203 -36 14 -96 12 -91 -3z"/>
<path d="M1555 1078 c-11 -6 -49 -40 -84 -75 -36 -35 -72 -63 -81 -63 -8 0
-40 23 -70 50 -48 44 -90 64 -90 43 0 -13 145 -143 161 -143 14 0 199 180 199
194 0 9 -12 7 -35 -6z"/>
</g>
</svg>
